<svg width="32" height="32" viewBox="0 0 32 32" fill="none" xmlns="http://www.w3.org/2000/svg">
<rect x="0.5" y="0.5" width="31" height="31" rx="1.5" fill="#22C55E"/>
<path d="M16 8.5C14.5166 8.5 13.0666 8.93987 11.8332 9.76398C10.5999 10.5881 9.63856 11.7594 9.07091 13.1299C8.50325 14.5003 8.35472 16.0083 8.64411 17.4632C8.9335 18.918 9.64781 20.2544 10.6967 21.3033C11.7456 22.3522 13.082 23.0665 14.5368 23.3559C15.9917 23.6453 17.4997 23.4968 18.8701 22.9291C20.2406 22.3614 21.4119 21.4001 22.236 20.1668C23.0601 18.9334 23.5 17.4834 23.5 16C22.9788 16.1605 22.4236 16.1759 21.8943 16.0445C21.365 15.913 20.8815 15.6398 20.4958 15.2542C20.1102 14.8685 19.837 14.385 19.7056 13.8557C19.5741 13.3264 19.5895 12.7712 19.75 12.25C19.2288 12.4105 18.6736 12.4259 18.1443 12.2945C17.615 12.163 17.1315 11.8898 16.7458 11.5042C16.3602 11.1185 16.087 10.635 15.9555 10.1057C15.8241 9.57638 15.8395 9.02124 16 8.5Z" stroke="white" stroke-linecap="round" stroke-linejoin="round"/>
<path d="M13.375 13.375V13.3825" stroke="white" stroke-width="2" stroke-linecap="round" stroke-linejoin="round"/>
<path d="M19 18.625V18.6325" stroke="white" stroke-width="2" stroke-linecap="round" stroke-linejoin="round"/>
<path d="M16 16V16.0075" stroke="white" stroke-width="2" stroke-linecap="round" stroke-linejoin="round"/>
<path d="M15.25 19.75V19.7575" stroke="white" stroke-width="2" stroke-linecap="round" stroke-linejoin="round"/>
<path d="M12.25 17.5V17.5075" stroke="white" stroke-width="2" stroke-linecap="round" stroke-linejoin="round"/>
<rect x="0.5" y="0.5" width="31" height="31" rx="1.5" stroke="#86EFAC"/>
</svg>
